<svg id="Capa_1" enable-background="new 0 0 512 512" height="512" viewBox="0 0 512 512" width="512" xmlns="http://www.w3.org/2000/svg"><g><g><g><path d="m459.031 306.06c-7.714-7.714-17.97-11.962-28.879-11.962-5.875 0-11.555 1.242-16.756 3.584-10.922-4.889-23.432-4.611-34.049.317-15.406-7.251-34.167-4.076-46.305 8.061l-6.506 6.506c-8.741-8.949-20.927-14.52-34.396-14.52h-86.983c-14.525 0-28.181 5.656-38.453 15.928l-63.992 63.993c-6.489-2.816-14.324-1.59-19.621 3.707l-13.107 13.106c-5.296 5.297-6.521 13.132-3.706 19.62l-17.488 17.488c-2.929 2.929-2.929 7.678 0 10.606 1.465 1.465 3.385 2.197 5.304 2.197s3.839-.732 5.304-2.197l16.606-16.607 56.702 56.701-16.608 16.607c-2.929 2.929-2.929 7.677 0 10.606 1.465 1.465 3.384 2.197 5.304 2.197 1.919 0 3.839-.732 5.304-2.197l17.479-17.478c2.207.962 4.604 1.48 7.085 1.48 4.739 0 9.194-1.845 12.546-5.196l13.104-13.105c3.352-3.351 5.197-7.806 5.197-12.545 0-2.481-.518-4.878-1.48-7.086l50.083-50.082c3.76-3.76 8.759-5.831 14.075-5.831h141.159c6.455 0 12.525-2.514 17.092-7.08l17.035-17.035c2.929-2.929 2.929-7.678 0-10.606s-7.677-2.93-10.607 0l-17.034 17.034c-1.732 1.732-4.036 2.687-6.485 2.687h-141.162c-9.323 0-18.089 3.631-24.683 10.224l-49.211 49.21-19.699-19.697c-2.93-2.929-7.678-2.929-10.607 0s-2.929 7.678 0 10.606l25.72 25.719c.698.699.803 1.514.803 1.938s-.104 1.239-.804 1.938l-13.104 13.105c-.699.699-1.516.803-1.939.803s-1.239-.104-1.938-.803l-68.739-68.739c-1.068-1.069-1.068-2.808 0-3.876l13.106-13.106c1.068-1.068 2.807-1.068 3.875 0l17.617 17.617c2.93 2.929 7.678 2.929 10.607 0s2.929-7.678 0-10.606l-11.598-11.598 63.111-63.112c7.438-7.438 17.328-11.534 27.847-11.534h86.983c18.256 0 33.108 14.853 33.108 33.109 0 3.734-3.038 6.773-6.772 6.773h-86.608c-4.143 0-7.5 3.358-7.5 7.5s3.357 7.5 7.5 7.5h86.608c9.948 0 18.352-6.708 20.943-15.836h33.929c1.989 0 3.896-.79 5.304-2.197l33.229-33.229c4.881-4.881 11.37-7.569 18.272-7.569s13.392 2.688 18.272 7.569c2.652 2.652 2.652 6.967.001 9.619l-13.55 13.549c-2.93 2.929-2.93 7.678-.001 10.607 1.465 1.464 3.384 2.197 5.304 2.197 1.919 0 3.839-.732 5.303-2.196l13.551-13.549c8.499-8.503 8.499-22.334-.002-30.834zm-115.381 10.607c5.574-5.575 13.355-8.154 20.93-7.401l-25.667 25.666c-.834-3.475-2.04-6.806-3.584-9.944zm26.591 20.425h-12.275l20.426-20.425c5.287-5.288 12.559-7.87 19.757-7.483z"/><path d="m256.004 262.198c-34.354 0-64.7-24.312-72.155-57.807-.9-4.042-4.904-6.592-8.951-5.691-4.043.9-6.591 4.907-5.691 8.95 4.326 19.433 15.262 37.081 30.795 49.694 15.767 12.803 35.655 19.854 56.003 19.854 49.044 0 88.943-39.9 88.943-88.943 0-24.5-20.478-65.477-42.158-108.86-12.122-24.257-24.656-49.339-32.149-69.287-2.273-6.046-8.154-10.108-14.637-10.108-6.484 0-12.366 4.063-14.637 10.109-7.492 19.946-20.025 45.027-32.147 69.283-15.864 31.747-32.271 64.575-38.923 88.708-1.101 3.993 1.244 8.123 5.237 9.224 3.997 1.102 8.123-1.245 9.224-5.237 6.264-22.723 22.337-54.886 37.88-85.989 12.293-24.599 25.005-50.036 32.772-70.715.172-.457 1.016-.457 1.188.001 7.768 20.678 20.479 46.116 32.773 70.717 19.948 39.917 40.576 81.194 40.576 102.154 0 40.772-33.17 73.943-73.943 73.943z"/></g></g></g></svg>