<svg id="Capa_1" enable-background="new 0 0 505.251 505.251" height="512" viewBox="0 0 505.251 505.251" width="512" xmlns="http://www.w3.org/2000/svg"><g><path d="m66.471 484.813c-22.269-22.269-26.779-56.825-10.988-84.022 12.87-22.166 51.495-88.65 51.495-88.65 3.996-6.686 13.157-6.557 17.293 0 0 0 38.625 66.485 51.495 88.65 15.791 27.197 11.28 61.754-10.984 84.019-27.194 27.193-70.997 27.316-98.311.003zm49.154-147.743c-12.158 20.929-33.826 58.229-42.845 73.762-11.244 19.366-8.022 43.973 7.834 59.839 19.303 19.293 50.72 19.293 70.025-.004 15.853-15.862 19.074-40.469 7.83-59.835-9.018-15.532-30.686-52.833-42.844-73.762zm-20.49-211.907c-19.851 0-36-16.149-36-36s16.149-36 36-36 36 16.149 36 36-16.149 36-36 36zm0-52c-8.822 0-16 7.178-16 16s7.178 16 16 16 16-7.178 16-16-7.177-16-16-16zm333 394c-17.094 0-31-13.907-31-31s13.906-31 31-31 31 13.907 31 31-13.906 31-31 31zm0-42c-6.065 0-11 4.935-11 11s4.935 11 11 11 11-4.935 11-11-4.934-11-11-11zm18.333-360.911c-9.226-15.891-34.468-59.112-34.468-59.112-3.993-6.46-13.026-7.235-17.293 0 0 0-25.242 43.222-34.468 59.112-11.32 19.497-8.087 44.271 7.877 60.235 19.581 19.581 50.983 19.492 70.478-.003 15.961-15.961 19.195-40.735 7.874-60.232zm-22.069 46.119c-11.604 11.599-30.488 11.599-42.09.002-9.531-9.537-11.467-24.327-4.709-35.967 5.421-9.336 18.445-31.756 25.753-44.336 7.308 12.58 20.332 35 25.753 44.336 6.758 11.64 4.822 26.431-4.707 35.965zm-61.197 246.78c-44.512 44.512-112.953 50.019-163.347 16.058-11.071-7.426 0-23.932 11.071-16.506l.016-.051c42.481 28.456 100.678 23.943 138.181-13.543 35.009-35.031 42.124-89.373 17.292-132.14-19.917-34.302-67.768-116.677-94.619-162.896-26.85 46.219-74.702 128.595-94.619 162.896-14.293 24.617-18.002 53.069-11.897 79.468l-.064-.014c2.976 12.945-16.363 17.39-19.339 4.445-7.206-31.206-2.811-64.843 14.087-93.947 23.932-41.216 103.181-177.778 103.181-177.778 3.861-6.593 13.006-6.641 17.29 0 0 0 79.26 136.562 103.192 177.778 29.363 50.572 20.975 114.83-20.425 156.23zm-189.687-33.558c-5.523 0-10 4.477-10 10s4.477 10 10 10 10-4.477 10-10-4.477-10-10-10z"/></g></svg>