<svg id="Layer_1" enable-background="new 0 0 512 512" height="512" viewBox="0 0 512 512" width="512" xmlns="http://www.w3.org/2000/svg"><g id="XMLID_1450_"><g id="XMLID_2922_"><path id="XMLID_2923_" d="m139.889 386.208c0 63.95 51.985 115.792 116.111 115.792s116.111-51.842 116.111-115.792c0-27.722-9.774-53.165-26.066-73.099h.008l-89.641-115.109-90.036 114.506h.067c-16.587 20.023-26.554 45.701-26.554 73.702z" fill="#91def5"/></g><g id="XMLID_2920_"><path id="XMLID_2921_" d="m10 182.666c0 40.321 32.776 73.007 73.208 73.007s73.208-32.686 73.208-73.007c0-17.479-6.162-33.52-16.434-46.089h.005l-56.519-72.577-56.768 72.196h.042c-10.458 12.625-16.742 28.815-16.742 46.47z" fill="#cff1fb"/></g><g id="XMLID_2918_"><path id="XMLID_2919_" d="m355.583 128.666c0 40.321 32.776 73.007 73.208 73.007s73.209-32.687 73.209-73.007c0-17.479-6.162-33.52-16.434-46.089h.005l-56.519-72.577-56.768 72.196h.042c-10.459 12.625-16.743 28.815-16.743 46.47z" fill="#b0e7f8"/></g><g id="XMLID_2916_"><g id="XMLID_2917_"><path id="XMLID_188_" d="m256 512c-69.538 0-126.111-56.43-126.111-125.792 0-28.813 9.989-56.902 28.151-79.226.148-.224.307-.444.475-.658l90.036-114.505c1.896-2.412 4.794-3.819 7.861-3.819h.023c3.076.007 5.977 1.429 7.866 3.856l89.641 115.109c.026.034.052.067.078.102 18.116 22.302 28.09 50.394 28.09 79.142 0 15.884-2.932 31.373-8.715 46.036-2.026 5.138-7.832 7.661-12.972 5.634-5.138-2.026-7.66-7.834-5.634-12.972 4.858-12.316 7.321-25.336 7.321-38.698 0-24.272-8.456-47.985-23.809-66.771-.125-.153-.245-.309-.359-.467l-81.569-104.743-81.479 103.623c-.226.358-.477.705-.751 1.037-15.641 18.879-24.255 42.789-24.255 67.322.001 58.332 47.602 105.79 106.112 105.79 14.907 0 29.318-3.018 42.833-8.97 5.056-2.226 10.957.067 13.183 5.121 2.226 5.055-.067 10.957-5.121 13.183-16.071 7.077-33.195 10.666-50.895 10.666z"/></g></g><g id="XMLID_2914_"><g id="XMLID_2915_"><path id="XMLID_185_" d="m83.208 265.673c-45.881 0-83.208-37.237-83.208-83.007 0-18.961 6.555-37.446 18.477-52.159.115-.167.236-.331.363-.492l56.768-72.196c1.895-2.411 4.793-3.819 7.86-3.819h.023c3.076.007 5.977 1.429 7.866 3.856l56.519 72.576c.012.015.024.031.036.046 11.935 14.711 18.503 33.232 18.503 52.187.002 45.771-37.326 83.008-83.207 83.008zm-48.128-123.956c-.195.295-.408.582-.637.859-9.314 11.242-14.443 25.48-14.443 40.09 0 34.742 28.355 63.007 63.208 63.007s63.208-28.265 63.208-63.007c0-14.454-5.035-28.575-14.177-39.761-.109-.133-.214-.269-.315-.407l-48.494-62.271z"/></g></g><g id="XMLID_2912_"><g id="XMLID_2913_"><path id="XMLID_182_" d="m428.792 211.673c-45.881 0-83.208-37.237-83.208-83.007 0-18.961 6.555-37.447 18.476-52.159.115-.167.236-.331.363-.492l56.769-72.196c1.895-2.412 4.793-3.819 7.86-3.819h.023c3.076.007 5.977 1.429 7.866 3.856l56.519 72.576c.015.02.03.039.045.058 11.929 14.71 18.495 33.226 18.495 52.176 0 45.77-37.327 83.007-83.208 83.007zm-48.128-123.956c-.195.295-.408.583-.637.859-9.313 11.242-14.443 25.479-14.443 40.089 0 34.742 28.355 63.007 63.208 63.007 34.854 0 63.208-28.265 63.208-63.007 0-14.454-5.035-28.575-14.178-39.761-.111-.137-.219-.276-.323-.417l-48.486-62.261z"/></g></g><g id="XMLID_1453_"><path id="XMLID_181_" d="m339.75 476.41c-2.64 0-5.21-1.07-7.08-2.93-1.86-1.86-2.93-4.44-2.93-7.07s1.07-5.21 2.93-7.07 4.44-2.93 7.08-2.93c2.63 0 5.2 1.07 7.07 2.93 1.86 1.86 2.92 4.44 2.92 7.07s-1.06 5.21-2.92 7.07c-1.87 1.86-4.44 2.93-7.07 2.93z"/></g></g></svg>